<svg width="24" height="24" viewBox="0 0 24 24" fill="none" xmlns="http://www.w3.org/2000/svg">
<mask id="mask0_555_1208" style="mask-type:luminance" maskUnits="userSpaceOnUse" x="0" y="0" width="24" height="24">
<path d="M12 9.77778C12.5107 9.77778 13.0164 9.67719 13.4882 9.48175C13.96 9.28632 14.3887 8.99987 14.7499 8.63875C15.111 8.27763 15.3974 7.84892 15.5929 7.3771C15.7883 6.90528 15.8889 6.39959 15.8889 5.88889C15.8889 5.37819 15.7883 4.8725 15.5929 4.40068C15.3974 3.92885 15.111 3.50015 14.7499 3.13903C14.3887 2.77791 13.96 2.49146 13.4882 2.29602C13.0164 2.10059 12.5107 2 12 2C10.9686 2 9.97945 2.40972 9.25014 3.13903C8.52083 3.86834 8.11111 4.85749 8.11111 5.88889C8.11111 6.92029 8.52083 7.90944 9.25014 8.63875C9.97945 9.36806 10.9686 9.77778 12 9.77778ZM2 21.3333V22H22V21.3333C22 18.8444 22 17.6 21.5156 16.6489C21.0895 15.8127 20.4096 15.1328 19.5733 14.7067C18.6222 14.2222 17.3778 14.2222 14.8889 14.2222H9.11111C6.62222 14.2222 5.37778 14.2222 4.42667 14.7067C3.59043 15.1328 2.91054 15.8127 2.48444 16.6489C2 17.6 2 18.8444 2 21.3333Z" fill="white" stroke="white" stroke-width="2.22222" stroke-linecap="round" strokeLinejoin="round"/>
</mask>
<g mask="url(#mask0_555_1208)">
<path d="M-1.33398 -1.33325H25.3327V25.3334H-1.33398V-1.33325Z" fill="#818181"/>
</g>
</svg>
