<svg width="62" height="62" viewBox="0 0 62 62" fill="none" xmlns="http://www.w3.org/2000/svg">
<path fill-rule="evenodd" clip-rule="evenodd" d="M38.1719 4.50831C37.5231 3.15804 36.5057 2.01844 35.237 1.22082C33.9684 0.423194 32.5 0 31.0012 0C29.5023 0 28.034 0.423194 26.7653 1.22082C25.4967 2.01844 24.4793 3.15804 23.8305 4.50831L0.945144 49.4968C-1.79286 54.8678 1.66701 62 8.11303 62H53.8865C60.3354 62 63.7896 54.8706 61.0572 49.4968L38.1719 4.50831ZM31.0012 19.7308C31.749 19.7308 32.4663 20.0277 32.9951 20.5562C33.5239 21.0847 33.821 21.8014 33.821 22.5488V36.6385C33.821 37.3859 33.5239 38.1026 32.9951 38.6311C32.4663 39.1596 31.749 39.4564 31.0012 39.4564C30.2533 39.4564 29.5361 39.1596 29.0073 38.6311C28.4785 38.1026 28.1814 37.3859 28.1814 36.6385V22.5488C28.1814 21.8014 28.4785 21.0847 29.0073 20.5562C29.5361 20.0277 30.2533 19.7308 31.0012 19.7308V19.7308ZM31.0012 43.6834C31.749 43.6834 32.4663 43.9802 32.9951 44.5087C33.5239 45.0372 33.821 45.7539 33.821 46.5013V47.9103C33.821 48.6576 33.5239 49.3744 32.9951 49.9029C32.4663 50.4313 31.749 50.7282 31.0012 50.7282C30.2533 50.7282 29.5361 50.4313 29.0073 49.9029C28.4785 49.3744 28.1814 48.6576 28.1814 47.9103V46.5013C28.1814 45.7539 28.4785 45.0372 29.0073 44.5087C29.5361 43.9802 30.2533 43.6834 31.0012 43.6834V43.6834Z" fill="#FF5126"/>
</svg>
