<svg width="67" height="67" viewBox="0 0 67 67" fill="none" xmlns="http://www.w3.org/2000/svg">
<path d="M9.57143 9.57143C9.57143 7.03293 10.5798 4.5984 12.3748 2.80341C14.1698 1.00842 16.6044 0 19.1429 0C21.6814 0 24.1159 1.00842 25.9109 2.80341C27.7059 4.5984 28.7143 7.03293 28.7143 9.57143C28.7143 12.1099 27.7059 14.5445 25.9109 16.3395C24.1159 18.1344 21.6814 19.1429 19.1429 19.1429C16.6044 19.1429 14.1698 18.1344 12.3748 16.3395C10.5798 14.5445 9.57143 12.1099 9.57143 9.57143ZM42.0138 17.152L42.2148 17.3051C44.2453 18.8103 46.7888 19.4511 49.2901 19.0879C51.7914 18.7246 54.0475 17.3867 55.566 15.3661C57.0845 13.3456 57.7422 10.8064 57.3954 8.30274C57.0487 5.79908 55.7257 3.53421 53.7152 2.0024C51.7047 0.47059 49.1699 -0.203792 46.664 0.126425C44.1581 0.456642 41.8846 1.76465 40.3395 3.76499C38.7945 5.76534 38.1034 8.29561 38.417 10.8036C38.7307 13.3117 40.0237 15.5938 42.0138 17.152ZM25.2111 23.9286C25.8122 22.7904 26.6367 21.7851 27.6353 20.9729C28.6339 20.1607 29.7861 19.5582 31.0229 19.2016C32.2596 18.8449 33.5557 18.7414 34.8334 18.8972C36.1111 19.053 37.3443 19.4649 38.4591 20.1084C39.574 20.7518 40.5476 21.6134 41.3217 22.6418C42.0959 23.6702 42.6547 24.8441 42.9646 26.0934C43.2746 27.3427 43.3294 28.6417 43.1257 29.9127C42.922 31.1837 42.4641 32.4005 41.7793 33.4904C40.4619 35.5872 38.3831 37.0917 35.9797 37.688C33.5763 38.2843 31.0353 37.926 28.8905 36.6882C26.7458 35.4504 25.1642 33.4296 24.4781 31.0502C23.792 28.6709 24.0548 26.1183 25.2111 23.9286ZM7.17857 23.9286H19.9564C19.1059 26.3576 18.9209 28.97 19.4208 31.4946C19.9207 34.0192 21.0872 36.3641 22.7991 38.2857H21.5357C19.0684 38.2854 16.6612 39.0475 14.6437 40.4679C12.6262 41.8883 11.097 43.8975 10.2654 46.2204C8.65895 45.5751 7.15487 44.6998 5.80028 43.6218C2.20143 40.7264 0 36.448 0 31.1071C0 29.2033 0.756312 27.3774 2.10256 26.0311C3.4488 24.6849 5.2747 23.9286 7.17857 23.9286ZM45.4643 38.2857C47.931 38.2857 50.3374 39.048 52.3541 40.4684C54.3707 41.8888 55.8991 43.8979 56.7299 46.2204C58.357 45.5552 59.8645 44.689 61.1997 43.6218C64.7986 40.7264 67 36.448 67 31.1071C67 29.2033 66.2437 27.3774 64.8974 26.0311C63.5512 24.6849 61.7253 23.9286 59.8214 23.9286H47.0436C47.57 25.4265 47.8571 27.0393 47.8571 28.7143C47.8616 32.2467 46.5592 35.6559 44.2009 38.2857H45.4643ZM52.1021 47.5126C52.4514 48.3549 52.6429 49.2833 52.6429 50.25C52.6429 55.5909 50.4462 59.8693 46.8426 62.7646C43.2964 65.6121 38.5394 67 33.5 67C28.4606 67 23.7036 65.6121 20.1574 62.7646C16.5586 59.8693 14.3571 55.5909 14.3571 50.25C14.3546 49.3066 14.5386 48.372 14.8984 47.4999C15.2583 46.6278 15.787 45.8354 16.4541 45.1684C17.1212 44.5013 17.9135 43.9726 18.7856 43.6127C19.6577 43.2529 20.5923 43.0689 21.5357 43.0714H45.4643C46.8861 43.0711 48.2761 43.493 49.4578 44.2837C50.6395 45.0744 51.5599 46.1982 52.1021 47.5126Z" fill="#5829A6"/>
</svg>
