<svg width="29" height="27" viewBox="0 0 29 27" fill="none" xmlns="http://www.w3.org/2000/svg">
<g clip-path="url(#clip0_555_1608)">
<path d="M25.7217 0H3.27991C2.41 0.000855113 1.576 0.344561 0.961039 0.955641C0.346077 1.56672 0.000430113 2.39522 0 3.2592V23.744C0.00086097 24.6076 0.34675 25.4355 0.961712 26.046C1.57667 26.6564 2.41044 26.9996 3.27991 27H25.7217C26.591 26.9996 27.4246 26.6564 28.0393 26.0459C28.654 25.4354 28.9996 24.6074 29 23.744V3.2592C29 2.39537 28.6547 1.56687 28.04 0.955739C27.4253 0.344612 26.5915 0.000855495 25.7217 0ZM18.7532 4.84725C19.3799 4.84725 19.9925 5.03182 20.5136 5.37762C21.0347 5.72342 21.4408 6.21492 21.6806 6.78997C21.9205 7.36502 21.9832 7.99778 21.861 8.60825C21.7387 9.21872 21.4369 9.77946 20.9938 10.2196C20.5506 10.6597 19.986 10.9594 19.3714 11.0809C18.7568 11.2023 18.1197 11.14 17.5407 10.9018C16.9617 10.6636 16.4668 10.2602 16.1186 9.74269C15.7705 9.22517 15.5846 8.61672 15.5846 7.99429C15.5846 7.15964 15.9185 6.35918 16.5127 5.769C17.1069 5.17881 17.9129 4.84725 18.7532 4.84725ZM24.6931 23.9885H4.76021C4.58413 24.0189 4.40293 23.9961 4.24 23.9232C4.07708 23.8502 3.93992 23.7304 3.84624 23.5793C3.75256 23.4281 3.70666 23.2525 3.71447 23.0752C3.72229 22.8978 3.78345 22.7269 3.89007 22.5845L9.32706 11.8886C9.38206 11.7191 9.48591 11.5695 9.62574 11.4581C9.76556 11.3468 9.93522 11.2786 10.1137 11.2621C10.2921 11.2456 10.4715 11.2815 10.6296 11.3653C10.7878 11.4491 10.9176 11.5772 11.0032 11.7336L16.4702 18.8298C16.5859 18.9909 16.7363 19.1244 16.9104 19.2205C17.0845 19.3166 17.278 19.373 17.4768 19.3855C17.6757 19.398 17.8748 19.3664 18.0597 19.2929C18.2447 19.2193 18.4108 19.1058 18.5461 18.9605L19.8834 17.6154C20.0149 17.4704 20.1784 17.3577 20.3612 17.286C20.5439 17.2142 20.7409 17.1855 20.9366 17.202C21.1324 17.2185 21.3217 17.2798 21.4896 17.381C21.6576 17.4823 21.7997 17.6207 21.9048 17.7856L25.3683 22.699C25.8696 23.4108 25.5682 23.9885 24.6931 23.9885Z" fill="#727D91"/>
</g>
<defs>
<clipPath id="clip0_555_1608">
<rect width="29" height="27" fill="white"/>
</clipPath>
</defs>
</svg>
