<svg width="74" height="56" viewBox="0 0 74 56" fill="none" xmlns="http://www.w3.org/2000/svg">
<path fill-rule="evenodd" clip-rule="evenodd" d="M0 28C0 28 13.875 0 37 0C60.125 0 74 28 74 28C74 28 60.125 56 37 56C13.875 56 0 28 0 28ZM8.37125 28.6067C8.24679 28.4051 8.12346 28.2029 8.00125 28L8.3805 27.3933C9.88825 25.0133 12.1083 21.854 14.948 18.732C20.7847 12.2967 28.305 7 37 7C45.6857 7 53.2153 12.2967 59.0613 18.732C61.6475 21.6026 63.9696 24.7048 65.9987 28C63.9602 31.2911 61.6354 34.3927 59.052 37.268C53.2152 43.7033 45.695 49 37 49C28.3142 49 20.7847 43.7033 14.9388 37.268C12.5091 34.5749 10.312 31.6772 8.37125 28.6067ZM50.875 28C50.8741 30.9471 49.9515 33.8188 48.2387 36.206C46.5258 38.5931 44.11 40.374 41.3355 41.2948C38.5609 42.2157 35.5691 42.2296 32.7862 41.3346C30.0034 40.4396 27.5714 38.6813 25.8368 36.3101C24.1022 33.939 23.1534 31.076 23.1256 28.129C23.0978 25.1821 23.9925 22.3014 25.682 19.8974C27.3716 17.4934 29.77 15.6887 32.5354 14.7404C35.3009 13.7921 38.2924 13.7486 41.0839 14.616C40.0617 15.0827 39.167 15.7926 38.4764 16.6848C37.7858 17.577 37.32 18.6249 37.1189 19.7387C36.9178 20.8524 36.9874 21.9987 37.3217 23.0794C37.656 24.16 38.2451 25.1427 39.0385 25.9432C39.8318 26.7437 40.8057 27.3381 41.8767 27.6754C42.9477 28.0127 44.0838 28.083 45.1876 27.88C46.2914 27.6771 47.3299 27.2071 48.2141 26.5103C49.0984 25.8135 49.8019 24.9107 50.2645 23.8793C50.6706 25.2145 50.8763 26.6034 50.875 28Z" fill="#5829A6"/>
</svg>
