<svg width="69" height="77" viewBox="0 0 69 77" fill="none" xmlns="http://www.w3.org/2000/svg">
<path d="M57.2875 53.3486C62.0263 55.3621 64.9 58.0037 64.9 60.9002C64.9 67.2072 51.266 72.319 34.45 72.319C17.634 72.319 4 67.2072 4 60.9002C4 58.0075 6.87372 55.3583 11.6125 53.3486" stroke="#5829A6" strokeWidth="7.61249" stroke-linecap="round" strokeLinejoin="round"/>
<path fill-rule="evenodd" clip-rule="evenodd" d="M37.2588 59.663L37.2779 59.6439L37.3235 59.5906L37.4948 59.4003L38.1266 58.6924C41.2894 55.0903 44.2721 51.334 47.0637 47.4373C49.5073 44.0117 52.0118 40.1293 53.9188 36.2736C55.7838 32.5054 57.2873 28.3604 57.2873 24.5275C57.2873 10.9277 47.3225 0 34.4498 0C21.5771 0 11.6123 10.9239 11.6123 24.5275C11.6123 28.3604 13.1158 32.5054 14.9808 36.2736C16.8878 40.1293 19.3961 44.0117 21.8321 47.4373C24.8103 51.5906 28.0056 55.5839 31.4048 59.4003L31.5761 59.5906L31.6218 59.6439L31.6408 59.663C31.9974 60.053 32.4314 60.3645 32.915 60.5776C33.3986 60.7907 33.9213 60.9007 34.4498 60.9007C34.9783 60.9007 35.501 60.7907 35.9846 60.5776C36.4683 60.3645 36.9022 60.053 37.2588 59.663ZM34.4498 15.225C32.4308 15.225 30.4946 16.027 29.067 17.4546C27.6393 18.8823 26.8373 20.8185 26.8373 22.8375C26.8373 24.8565 27.6393 26.7927 29.067 28.2203C30.4946 29.648 32.4308 30.45 34.4498 30.45C36.4688 30.45 38.405 29.648 39.8327 28.2203C41.2603 26.7927 42.0623 24.8565 42.0623 22.8375C42.0623 20.8185 41.2603 18.8823 39.8327 17.4546C38.405 16.027 36.4688 15.225 34.4498 15.225Z" fill="#5829A6"/>
</svg>
