<svg width="83" height="74" viewBox="0 0 83 74" fill="none" xmlns="http://www.w3.org/2000/svg">
<path d="M82.2348 34.0024L73.7778 26.5434V6.90784C73.7778 6.29715 73.5349 5.71147 73.1025 5.27965C72.6701 4.84783 72.0837 4.60523 71.4722 4.60523H62.25C61.6385 4.60523 61.0521 4.84783 60.6197 5.27965C60.1874 5.71147 59.9444 6.29715 59.9444 6.90784V14.3439L45.3589 1.48231C44.454 0.663441 42.7291 0 41.5 0C40.2709 0 38.5518 0.663441 37.6468 1.48231L0.757951 34.0067C0.303443 34.4654 0.0336728 35.0749 0 35.7193C0.029449 36.2822 0.235658 36.8214 0.589358 37.2606L3.67448 40.6843C4.1553 41.1153 4.76086 41.3824 5.40365 41.4471C5.96093 41.3914 6.49298 41.1871 6.94405 40.8556L9.23519 38.8408V69.0784C9.23519 70.2998 9.721 71.4712 10.5858 72.3348C11.4505 73.1985 12.6234 73.6837 13.8463 73.6837H69.1667C70.3896 73.6837 71.5625 73.1985 72.4272 72.3348C73.292 71.4712 73.7778 70.2998 73.7778 69.0784V38.8394L76.0704 40.8541C76.5234 41.1853 77.0566 41.3899 77.6151 41.4471C78.2521 41.3806 78.8513 41.1129 79.3255 40.6829L82.4106 37.2563C82.7418 36.8056 82.9454 36.2742 83 35.7179C82.9338 35.0794 82.6658 34.4786 82.2348 34.0024ZM41.5 25.3288C43.324 25.3288 45.107 25.8689 46.6236 26.881C48.1402 27.8931 49.3222 29.3315 50.0202 31.0145C50.7182 32.6975 50.9009 34.5494 50.545 36.3361C50.1892 38.1227 49.3108 39.7639 48.0211 41.052C46.7313 42.3401 45.0881 43.2173 43.2992 43.5727C41.5102 43.9281 39.656 43.7457 37.9708 43.0486C36.2857 42.3515 34.8454 41.1709 33.832 39.6563C32.8187 38.1416 32.2778 36.3609 32.2778 34.5392C32.2778 32.0965 33.2494 29.7537 34.9789 28.0264C36.7084 26.2991 39.0541 25.3288 41.5 25.3288ZM57.6389 64.4732H25.3611C24.7496 64.4732 24.1632 64.2306 23.7308 63.7988C23.2985 63.367 23.0556 62.7813 23.0556 62.1706C23.0556 58.5064 24.513 54.9924 27.1072 52.4014C29.7015 49.8105 33.2201 48.3549 36.8889 48.3549H46.1111C49.7799 48.3549 53.2985 49.8105 55.8928 52.4014C58.487 54.9924 59.9444 58.5064 59.9444 62.1706C59.9444 62.7813 59.7015 63.367 59.2692 63.7988C58.8368 64.2306 58.2504 64.4732 57.6389 64.4732Z" fill="#5829A6"/>
</svg>
