<svg width="262" height="73" viewBox="0 0 262 73" fill="none" xmlns="http://www.w3.org/2000/svg">
<path d="M148.972 72.1727C146.917 72.1666 144.874 71.9641 142.855 71.5715C142.278 71.4672 142.107 71.2156 142.186 70.5959C142.818 65.4912 143.659 58.7607 144.475 51.9933C145.26 45.4652 146.187 37.7223 147.101 29.8198C147.174 28.9731 147.156 28.1203 147.052 27.2736C146.941 26.0834 146.352 24.9851 145.42 24.2366C144.763 23.8869 144.512 23.077 144.861 22.4205C144.904 22.3346 144.96 22.2549 145.021 22.1812C146.481 19.1871 149.279 17.0704 152.555 16.4875C153.107 16.3955 153.66 16.3464 154.218 16.3526C154.93 16.3526 155.641 16.4262 156.341 16.5796C159.218 17.2974 161.255 19.8682 161.286 22.8316C161.286 22.985 161.317 23.1322 161.335 23.347C161.347 23.5003 161.372 23.6844 161.396 23.9053C161.495 23.7519 161.58 23.623 161.648 23.531C161.734 23.4083 161.82 23.2795 161.893 23.1506C164.176 19.0583 168.471 16.5059 173.158 16.4569C174.502 16.4569 175.839 16.6777 177.109 17.1072C180.017 18.1441 182.306 20.4326 183.343 23.3408C184.803 27.1571 185.214 31.2923 184.521 35.3172C183.913 40.6243 181.674 45.6186 178.103 49.5943C175.551 52.7173 171.753 54.564 167.716 54.6315C167.286 54.6315 166.851 54.607 166.409 54.564C163.28 54.337 160.568 52.3185 159.451 49.3857C159.316 49.0483 159.108 48.7477 158.832 48.5022C158.826 48.5636 158.813 48.6249 158.795 48.6863C158.758 48.8397 158.727 48.9992 158.709 49.1587L158.298 52.7111C157.623 58.5337 156.924 64.5525 156.249 70.4978C156.267 71.0438 155.856 71.5101 155.316 71.5715C153.218 71.9641 151.095 72.1666 148.972 72.1727ZM166.213 25.7459C165.164 25.7705 164.163 26.1877 163.409 26.9178C162.562 27.7215 161.863 28.6725 161.347 29.7217C160.212 32.1758 159.642 34.8509 159.678 37.5566C159.605 39.1764 159.899 40.79 160.544 42.2748C161.108 43.7043 162.47 44.6615 164.01 44.7167C164.703 44.7105 165.384 44.5142 165.973 44.1399C166.961 43.5264 167.783 42.6858 168.385 41.6858C170.17 38.5015 170.906 34.8264 170.483 31.2003C170.409 30.3536 170.225 29.5192 169.943 28.7216C169.477 27.0282 167.967 25.8257 166.213 25.7459Z" fill="#142748"/>
<path d="M27.3182 54.3628C25.1156 54.0622 22.9314 53.7615 20.7472 53.5039C20.1214 53.4241 20.0355 53.1235 20.1152 52.516C20.9803 45.7793 21.8331 39.0426 22.6676 32.3059C23.3609 26.8147 24.091 21.3235 24.7168 15.8262C24.907 14.2187 24.9377 12.5989 24.7966 10.9853C24.5818 8.59863 23.2872 7.73967 21.0355 8.28572C19.1949 8.81337 17.6549 10.0773 16.7837 11.7829C14.759 15.2556 14.2068 19.3909 15.2437 23.2746C15.6793 25.1827 15.4523 25.8821 13.8387 26.8945C11.3906 28.5326 8.3536 29.0419 5.50676 28.2995C2.3961 27.3915 0.211888 24.5998 0.0646374 21.3665C-0.46301 15.2801 2.26725 9.37169 7.24922 5.83155C13.3417 1.13181 21.0969 -0.856071 28.6926 0.340338C30.478 0.57962 32.2204 1.08886 33.8525 1.84965C37.1226 3.46327 39.3007 6.67824 39.5829 10.3104C39.9143 13.4763 39.8161 16.679 39.2823 19.8142C38.5277 26.33 37.73 32.8397 36.9386 39.3494C36.4048 43.7485 35.8526 48.1415 35.325 52.5406C35.3495 53.056 34.9507 53.4916 34.4353 53.51C32.0854 53.7922 29.7294 54.0683 27.355 54.3812" fill="#142748"/>
<path d="M83.9048 54.6942C80.475 54.6635 77.1128 53.7432 74.1494 52.0191C69.9589 49.6692 67.2716 45.3315 67.02 40.5336C66.2102 34.2693 68.1551 27.9621 72.3517 23.2439C75.0268 20.2253 78.5669 18.1086 82.4875 17.176C84.6103 16.6299 86.8007 16.3477 88.991 16.3354C91.2243 16.3354 93.4454 16.6606 95.5805 17.311C98.0592 17.9797 100.262 19.44 101.845 21.4647C104.931 25.6122 104.428 31.4102 100.667 34.9565C98.2555 37.245 95.2062 38.742 91.9176 39.2451C90.5188 39.5212 89.1015 39.6624 87.678 39.6624C85.6595 39.644 83.6532 39.4231 81.6776 38.9997C81.4935 38.9629 81.3156 38.9322 81.0763 38.9016L80.7757 38.8525C80.7695 40.3925 81.4322 41.8527 82.5856 42.8712C84.2054 44.3069 86.2976 45.1045 88.4572 45.1168C88.7579 45.1168 89.0462 45.1413 89.3407 45.1413C92.6477 45.1106 95.8934 44.2823 98.8077 42.7301C99.3415 42.4478 99.8876 42.1963 100.452 41.9754C100.593 41.9202 100.747 41.8895 100.894 41.8834C101.047 41.8711 101.194 41.9325 101.293 42.049C101.434 42.2699 101.47 42.546 101.391 42.7976C101.268 43.4909 101.053 44.1719 100.753 44.81C98.8875 48.5894 95.6909 51.5467 91.7704 53.1051C89.2855 54.1358 86.6105 54.6819 83.9048 54.6942ZM87.5983 24.0415C86.7148 24.017 85.8374 24.2379 85.0705 24.6735C82.5979 26.5939 81.1131 29.5266 81.0334 32.6557C81.5917 32.7048 82.1193 32.7293 82.6286 32.7293C85.095 32.8704 87.5001 31.9501 89.2487 30.2015C89.7641 29.6493 90.169 28.999 90.4329 28.2934C90.8807 27.324 90.8255 26.2012 90.2979 25.2809C89.7457 24.5017 88.8438 24.0416 87.8866 24.0538L87.5983 24.0415Z" fill="#142748"/>
<path d="M204.037 54.6879C200.651 54.6633 197.331 53.7737 194.392 52.0926C190.116 49.7305 187.373 45.313 187.146 40.4353C186.367 34.1956 188.324 27.919 192.509 23.2254C195.19 20.2129 198.73 18.0962 202.651 17.1697C204.774 16.6237 206.958 16.3415 209.154 16.3292C211.388 16.323 213.615 16.6605 215.75 17.317C218.983 18.1269 221.683 20.3295 223.137 23.3297C224.818 27.2932 223.91 31.8764 220.848 34.9011C218.431 37.2265 215.357 38.748 212.044 39.2573C210.657 39.5272 209.246 39.6684 207.835 39.6622C205.81 39.65 203.786 39.4229 201.804 38.9996C201.638 38.9628 201.473 38.9444 201.276 38.9198L200.914 38.8708C200.939 40.466 201.657 41.9753 202.878 42.9999C204.473 44.3374 206.479 45.0859 208.559 45.1105C208.86 45.1105 209.16 45.135 209.479 45.135C212.793 45.0921 216.05 44.2577 218.977 42.6993L219.296 42.5336C219.621 42.3434 219.965 42.19 220.321 42.0673C220.535 41.9998 220.756 41.9569 220.977 41.9507C221.112 41.9385 221.241 41.9753 221.345 42.055C221.542 42.3802 221.585 42.779 221.456 43.141L221.321 43.503C220.996 44.4724 220.566 45.405 220.051 46.2824C218.124 49.3685 215.265 51.7552 211.884 53.1049C209.393 54.1296 206.731 54.6695 204.037 54.6879ZM207.485 23.9801C206.406 23.9739 205.356 24.3727 204.559 25.1029C202.503 27.1582 201.289 29.913 201.16 32.8212C201.595 32.7905 202.019 32.7783 202.424 32.7599C203.27 32.7537 204.117 32.6801 204.951 32.539C207.412 32.2936 209.541 30.729 210.522 28.4589C211.001 27.4895 210.983 26.3545 210.473 25.4035C209.897 24.5507 208.946 24.023 207.915 23.9985C207.768 23.9862 207.626 23.9801 207.485 23.9801Z" fill="#142748"/>
<path d="M122.472 54.6879C119.281 54.6634 116.14 53.878 113.305 52.3994C108.827 50.16 105.869 45.7179 105.538 40.7237C104.802 35.2754 106.133 29.7412 109.274 25.2256C112.293 20.8449 116.938 17.8508 122.171 16.9059C123.944 16.5317 125.754 16.3415 127.57 16.3292C129.773 16.3231 131.969 16.6482 134.074 17.2863C136.798 18.0287 139.172 19.7037 140.78 22.029C143.154 25.7593 142.835 30.5941 139.995 33.9747C137.546 36.8277 134.147 38.699 130.429 39.2327C129.031 39.515 127.607 39.6561 126.178 39.65C124.165 39.6316 122.159 39.4107 120.189 38.9873C119.987 38.9444 119.778 38.9137 119.545 38.883H119.521C119.484 38.883 119.447 38.8953 119.416 38.9076L119.287 38.9382C119.294 40.4292 119.944 41.8526 121.073 42.8281C122.693 44.2638 124.779 45.0614 126.944 45.0737C127.245 45.0737 127.546 45.0921 127.846 45.0921C131.172 45.0614 134.442 44.227 137.375 42.6502L137.626 42.5213C137.927 42.3495 138.24 42.2084 138.571 42.0919C138.829 42.0244 139.099 41.9814 139.369 41.9753C139.485 41.9753 139.608 41.963 139.725 41.9446C139.731 42.0796 139.749 42.2146 139.774 42.3495C139.835 42.6379 139.847 42.9324 139.798 43.2269C139.626 43.9386 139.363 44.6258 139.013 45.27C137.092 48.7918 134.012 51.5466 130.294 53.0497C127.822 54.1112 125.165 54.6695 122.472 54.6879ZM126.122 24.0414C125.208 24.0169 124.3 24.25 123.515 24.7163C121.079 26.6367 119.625 29.5388 119.539 32.6433C120.091 32.7108 120.65 32.7415 121.208 32.7415C123.042 32.7783 124.852 32.2936 126.417 31.3364C127.589 30.6616 128.484 29.594 128.945 28.324C129.38 27.3239 129.313 26.1766 128.754 25.2378C128.178 24.4709 127.264 24.0292 126.306 24.0537L126.122 24.0414Z" fill="#142748"/>
<path d="M68.9765 3.5489C68.7433 3.92316 68.5961 4.18699 68.4181 4.43241C63.792 11.163 58.6137 17.4947 52.9507 23.3786C52.1654 24.0167 51.9445 25.1149 52.4169 26.0046C53.8342 29.9558 55.8037 33.6923 58.2579 37.0974C60.2089 39.5639 62.5036 41.742 65.0743 43.5519C65.6633 43.9139 65.9394 44.6256 65.7554 45.2882C65.1786 48.1289 63.5589 50.6445 61.2151 52.3501C56.5154 56.2584 49.5333 55.6142 45.625 50.9144C45.1587 50.3561 44.7538 49.7487 44.4041 49.1106C42.0665 45.4232 40.5019 41.3002 39.8086 36.9931C39.3485 34.5206 39.1521 31.9866 38.8822 29.4834C38.741 28.1765 39.1644 26.8697 40.0356 25.888C44.7292 20.2311 48.9259 14.1755 52.5826 7.80076C53.2391 6.62275 53.8588 5.41407 54.5643 4.27288C54.8097 3.85567 55.1963 3.53663 55.6503 3.37097C59.7488 2.24205 64.0804 2.21138 68.1911 3.28508C68.3936 3.3403 68.5961 3.4262 68.9581 3.56731" fill="#142748"/>
<path d="M243.406 26.4045C243.529 26.1039 243.664 25.8278 243.775 25.5333C244.891 22.1527 247.204 19.2936 250.284 17.4959C252.487 16.1768 255.156 15.9007 257.579 16.7412C260.389 17.7781 262.181 20.5391 261.984 23.527C261.991 27.6071 259.997 31.4295 256.653 33.7609C254.689 35.393 252.186 36.2335 249.634 36.1231C249.223 36.1047 248.818 36.0372 248.425 35.9206C247.891 35.8163 247.542 35.2948 247.646 34.7549C247.658 34.6812 247.683 34.6138 247.713 34.5524C247.996 33.4848 248.229 32.405 248.48 31.3313C248.505 31.2209 248.523 31.1104 248.529 30.9938C248.579 30.0674 248.572 29.1103 247.671 28.5826C246.854 28.1715 245.867 28.3433 245.235 28.9998C244.229 29.8465 243.554 31.0245 243.333 32.3191C242.774 34.9757 242.308 37.6508 241.928 40.3565C241.369 44.4059 240.946 48.4737 240.474 52.5353C240.492 53.0507 240.112 53.4986 239.602 53.5661C235.363 54.4067 231.001 54.4067 226.767 53.5538C226.27 53.4618 226.166 53.2103 226.233 52.7256C226.939 47.5227 227.651 42.3199 228.325 37.1047C228.669 34.3193 228.988 31.5276 229.203 28.7237C229.442 26.8831 228.669 25.0609 227.184 23.9504C226.534 23.4657 226.712 22.8276 227.019 22.2877C228.485 19.2629 231.295 17.1155 234.596 16.4897C235.829 16.2811 237.093 16.3056 238.314 16.5633C241.149 17.2443 243.143 19.7844 243.136 22.6987C243.228 23.9074 243.136 25.1284 243.136 26.3493L243.4 26.4291" fill="#142748"/>
</svg>
