<svg width="131" height="37" viewBox="0 0 131 37" fill="none" xmlns="http://www.w3.org/2000/svg">
<path d="M74.4856 36.0861C73.4579 36.0831 72.4364 35.9818 71.4271 35.7855C71.1387 35.7333 71.0528 35.6076 71.0927 35.2977C71.4087 32.7454 71.8289 29.3801 72.237 25.9964C72.6296 22.7324 73.0928 18.8609 73.5499 14.9097C73.5867 14.4863 73.5775 14.0599 73.5254 13.6366C73.4702 13.0414 73.1757 12.4923 72.7094 12.1181C72.3811 11.9432 72.2554 11.5383 72.4302 11.21C72.4517 11.1671 72.4793 11.1272 72.51 11.0904C73.2401 9.59332 74.639 8.53496 76.2771 8.24353C76.5532 8.19751 76.8293 8.17297 77.1085 8.17604C77.4643 8.17604 77.8202 8.21285 78.1699 8.28954C79.6087 8.64847 80.6272 9.93384 80.6425 11.4155C80.6425 11.4922 80.6578 11.5659 80.667 11.6732C80.6732 11.7499 80.6854 11.842 80.6977 11.9524C80.7468 11.8757 80.7897 11.8113 80.8235 11.7653C80.8664 11.7039 80.9094 11.6395 80.9462 11.5751C82.0874 9.5289 84.2348 8.25273 86.5785 8.22819C87.2504 8.22819 87.9191 8.33863 88.5541 8.55337C90.0082 9.07181 91.1525 10.2161 91.6709 11.6702C92.4011 13.5783 92.6066 15.6459 92.2599 17.6584C91.9562 20.3119 90.8365 22.809 89.0511 24.7969C87.7749 26.3584 85.876 27.2818 83.8575 27.3155C83.6427 27.3155 83.4249 27.3033 83.204 27.2818C81.6395 27.1683 80.2836 26.159 79.7252 24.6926C79.6578 24.5239 79.5535 24.3736 79.4154 24.2509C79.4123 24.2816 79.4062 24.3122 79.397 24.3429C79.3786 24.4196 79.3633 24.4994 79.3541 24.5791L79.1485 26.3553C78.8111 29.2666 78.4613 32.276 78.1239 35.2486C78.1331 35.5217 77.9276 35.7548 77.6576 35.7855C76.6084 35.9818 75.547 36.0831 74.4856 36.0861ZM83.1059 12.8727C82.5813 12.885 82.0813 13.0936 81.7039 13.4586C81.2806 13.8605 80.9309 14.336 80.6732 14.8606C80.1056 16.0877 79.8203 17.4252 79.8388 18.7781C79.8019 19.5879 79.9492 20.3948 80.2713 21.1371C80.5535 21.8519 81.2346 22.3305 82.0046 22.3581C82.3512 22.355 82.6917 22.2569 82.9862 22.0697C83.4801 21.763 83.8912 21.3427 84.1918 20.8426C85.0845 19.2505 85.4527 17.4129 85.241 15.5999C85.2042 15.1766 85.1122 14.7594 84.971 14.3606C84.7379 13.5139 83.9832 12.9126 83.1059 12.8727Z" fill="white"/>
<path d="M13.6591 27.1814C12.5578 27.0311 11.4657 26.8808 10.3736 26.7519C10.0607 26.7121 10.0177 26.5617 10.0576 26.258C10.4902 22.8897 10.9166 19.5213 11.3338 16.153C11.6804 13.4074 12.0455 10.6618 12.3584 7.91309C12.4535 7.10934 12.4688 6.29947 12.3983 5.49266C12.2909 4.29932 11.6436 3.86983 10.5178 4.14286C9.59746 4.40669 8.82746 5.03864 8.39185 5.89146C7.3795 7.62779 7.1034 9.69543 7.62185 11.6373C7.83965 12.5914 7.72615 12.9411 6.91935 13.4472C5.69533 14.2663 4.1768 14.5209 2.75338 14.1498C1.19805 13.6957 0.105944 12.2999 0.0323187 10.6832C-0.231505 7.64006 1.13363 4.68585 3.62461 2.91577C6.67085 0.565904 10.5485 -0.428036 14.3463 0.170169C15.239 0.28981 16.1102 0.54443 16.9262 0.924827C18.5613 1.73164 19.6504 3.33912 19.7915 5.15521C19.9571 6.73815 19.9081 8.3395 19.6412 9.9071C19.2638 13.165 18.865 16.4199 18.4693 19.6747C18.2024 21.8743 17.9263 24.0708 17.6625 26.2703C17.6748 26.528 17.4754 26.7458 17.2177 26.755C16.0427 26.8961 14.8647 27.0342 13.6775 27.1906" fill="white"/>
<path d="M41.9524 27.3473C40.2375 27.332 38.5564 26.8718 37.0747 26.0098C34.9795 24.8349 33.6358 22.666 33.51 20.267C33.1051 17.1349 34.0776 13.9813 36.1759 11.6222C37.5134 10.1129 39.2835 9.05454 41.2437 8.58824C42.3052 8.31522 43.4003 8.1741 44.4955 8.16797C45.6122 8.16797 46.7227 8.33056 47.7902 8.65573C49.0296 8.99012 50.1309 9.72023 50.9224 10.7326C52.4654 12.8064 52.2139 15.7053 50.3334 17.4785C49.1278 18.6227 47.6031 19.3713 45.9588 19.6228C45.2594 19.7609 44.5507 19.8314 43.839 19.8314C42.8297 19.8222 41.8266 19.7118 40.8388 19.5001C40.7468 19.4817 40.6578 19.4664 40.5382 19.451L40.3878 19.4265C40.3848 20.1965 40.7161 20.9266 41.2928 21.4358C42.1027 22.1537 43.1488 22.5525 44.2286 22.5586C44.3789 22.5586 44.5231 22.5709 44.6704 22.5709C46.3239 22.5556 47.9467 22.1414 49.4039 21.3653C49.6708 21.2242 49.9438 21.0984 50.226 20.988C50.2966 20.9603 50.3733 20.945 50.4469 20.9419C50.5236 20.9358 50.5972 20.9665 50.6463 21.0248C50.7168 21.1352 50.7353 21.2733 50.6954 21.399C50.634 21.7457 50.5266 22.0862 50.3763 22.4052C49.4437 24.295 47.8455 25.7736 45.8852 26.5528C44.6428 27.0682 43.3052 27.3412 41.9524 27.3473ZM43.7991 12.021C43.3574 12.0087 42.9187 12.1192 42.5352 12.337C41.299 13.2972 40.5566 14.7636 40.5167 16.3281C40.7958 16.3526 41.0597 16.3649 41.3143 16.3649C42.5475 16.4355 43.7501 15.9753 44.6244 15.101C44.882 14.8249 45.0845 14.4997 45.2164 14.1469C45.4404 13.6622 45.4128 13.1009 45.1489 12.6407C44.8728 12.2511 44.4219 12.021 43.9433 12.0272L43.7991 12.021Z" fill="white"/>
<path d="M102.019 27.3444C100.325 27.3322 98.6656 26.8874 97.1962 26.0468C95.058 24.8657 93.6867 22.657 93.5732 20.2181C93.1836 17.0983 94.1622 13.96 96.2544 11.6132C97.595 10.1069 99.3651 9.04858 101.325 8.58536C102.387 8.31233 103.479 8.17122 104.577 8.16508C105.694 8.16201 106.807 8.33074 107.875 8.65898C109.492 9.06392 110.841 10.1652 111.568 11.6653C112.409 13.6471 111.955 15.9387 110.424 17.4511C109.215 18.6137 107.679 19.3745 106.022 19.6291C105.329 19.7641 104.623 19.8347 103.918 19.8316C102.905 19.8255 101.893 19.712 100.902 19.5003C100.819 19.4819 100.736 19.4727 100.638 19.4604L100.457 19.4359C100.469 20.2335 100.828 20.9881 101.439 21.5004C102.236 22.1692 103.24 22.5435 104.28 22.5557C104.43 22.5557 104.58 22.568 104.74 22.568C106.396 22.5465 108.025 22.1293 109.489 21.3501L109.648 21.2673C109.811 21.1722 109.982 21.0955 110.16 21.0342C110.268 21.0004 110.378 20.9789 110.489 20.9759C110.556 20.9697 110.621 20.9881 110.673 21.028C110.771 21.1906 110.792 21.39 110.728 21.571L110.66 21.752C110.498 22.2367 110.283 22.703 110.025 23.1417C109.062 24.6847 107.633 25.8781 105.942 26.553C104.697 27.0653 103.365 27.3352 102.019 27.3444ZM103.743 11.9905C103.203 11.9875 102.678 12.1869 102.279 12.5519C101.252 13.5796 100.644 14.957 100.58 16.4111C100.798 16.3958 101.009 16.3896 101.212 16.3804C101.635 16.3774 102.059 16.3405 102.476 16.27C103.706 16.1473 104.77 15.365 105.261 14.23C105.5 13.7453 105.491 13.1777 105.237 12.7022C104.948 12.2758 104.473 12.012 103.957 11.9997C103.884 11.9936 103.813 11.9905 103.743 11.9905Z" fill="white"/>
<path d="M61.2359 27.3444C59.6407 27.3322 58.07 26.9395 56.6527 26.2002C54.4133 25.0805 52.9346 22.8594 52.769 20.3623C52.4008 17.6382 53.0665 14.8711 54.6372 12.6133C56.1465 10.4229 58.4688 8.92588 61.0856 8.45345C61.9721 8.26632 62.8771 8.17122 63.7851 8.16508C64.8865 8.16201 65.9847 8.3246 67.0369 8.64364C68.399 9.01484 69.5862 9.85233 70.3899 11.015C71.5771 12.8802 71.4176 15.2975 69.9973 16.9878C68.7733 18.4143 67.0737 19.35 65.2147 19.6169C64.5153 19.758 63.8036 19.8285 63.0888 19.8255C62.0826 19.8163 61.0794 19.7058 60.0947 19.4942C59.9934 19.4727 59.8891 19.4573 59.7726 19.442H59.7603C59.7419 19.442 59.7235 19.4481 59.7081 19.4543L59.6437 19.4696C59.6468 20.2151 59.972 20.9268 60.5364 21.4145C61.3463 22.1324 62.3893 22.5312 63.4722 22.5373C63.6226 22.5373 63.7729 22.5465 63.9232 22.5465C65.5859 22.5312 67.221 22.114 68.6874 21.3256L68.8131 21.2612C68.9635 21.1753 69.1199 21.1047 69.2856 21.0464C69.4144 21.0127 69.5494 20.9912 69.6844 20.9881C69.7427 20.9881 69.804 20.982 69.8623 20.9728C69.8654 21.0403 69.8746 21.1078 69.8868 21.1753C69.9175 21.3194 69.9236 21.4667 69.8991 21.614C69.8132 21.9698 69.6813 22.3134 69.5064 22.6355C68.5462 24.3964 67.0062 25.7738 65.1472 26.5254C63.9109 27.0561 62.5826 27.3352 61.2359 27.3444ZM63.0612 12.0212C62.6041 12.0089 62.1501 12.1255 61.7574 12.3586C60.5395 13.3188 59.8125 14.7699 59.7695 16.3221C60.0456 16.3559 60.3248 16.3712 60.6039 16.3712C61.5212 16.3896 62.4261 16.1473 63.2084 15.6687C63.7943 15.3313 64.2422 14.7975 64.4723 14.1625C64.6901 13.6624 64.6564 13.0888 64.3772 12.6194C64.0888 12.2359 63.6318 12.0151 63.1532 12.0273L63.0612 12.0212Z" fill="white"/>
<path d="M34.4887 1.7747C34.3722 1.96183 34.2985 2.09374 34.2096 2.21645C31.8965 5.58173 29.3073 8.74762 26.4758 11.6896C26.0832 12.0086 25.9727 12.5577 26.209 13.0025C26.9176 14.9782 27.9023 16.8464 29.1294 18.549C30.105 19.7822 31.2523 20.8712 32.5377 21.7762C32.8322 21.9572 32.9702 22.3131 32.8782 22.6444C32.5898 24.0647 31.7799 25.3225 30.6081 26.1753C28.2582 28.1295 24.7671 27.8073 22.813 25.4575C22.5798 25.1783 22.3774 24.8746 22.2025 24.5556C21.0337 22.7119 20.2514 20.6504 19.9048 18.4968C19.6747 17.2605 19.5765 15.9936 19.4416 14.7419C19.371 14.0885 19.5827 13.4351 20.0183 12.9443C22.3651 10.1158 24.4634 7.08798 26.2918 3.90062C26.62 3.31162 26.9299 2.70728 27.2827 2.13669C27.4054 1.92808 27.5986 1.76856 27.8256 1.68573C29.8749 1.12127 32.0407 1.10593 34.0961 1.64278C34.1973 1.67039 34.2985 1.71334 34.4795 1.7839" fill="white"/>
<path d="M121.704 13.2028C121.765 13.0524 121.833 12.9144 121.888 12.7671C122.446 11.0768 123.603 9.64728 125.143 8.74844C126.244 8.08888 127.578 7.95083 128.79 8.37111C130.195 8.88955 131.091 10.27 130.993 11.764C130.996 13.804 129.999 15.7152 128.327 16.881C127.345 17.697 126.094 18.1172 124.817 18.062C124.612 18.0528 124.409 18.0191 124.213 17.9608C123.946 17.9086 123.771 17.6479 123.823 17.3779C123.83 17.3411 123.842 17.3074 123.857 17.2767C123.998 16.7429 124.115 16.203 124.241 15.6661C124.253 15.6109 124.262 15.5557 124.265 15.4974C124.29 15.0342 124.287 14.5556 123.836 14.2918C123.428 14.0863 122.934 14.1722 122.618 14.5004C122.115 14.9238 121.777 15.5128 121.667 16.16C121.388 17.4884 121.155 18.8259 120.964 20.1788C120.685 22.2034 120.474 24.2373 120.237 26.2682C120.247 26.5259 120.056 26.7498 119.802 26.7835C117.682 27.2038 115.501 27.2038 113.384 26.7774C113.136 26.7314 113.083 26.6056 113.117 26.3633C113.47 23.7618 113.826 21.1604 114.163 18.5529C114.335 17.1601 114.495 15.7643 114.602 14.3624C114.722 13.442 114.335 12.5309 113.593 11.9757C113.267 11.7333 113.356 11.4143 113.51 11.1443C114.243 9.63194 115.648 8.55824 117.298 8.24533C117.915 8.14103 118.547 8.1533 119.157 8.28215C120.575 8.62266 121.572 9.8927 121.569 11.3499C121.615 11.9542 121.569 12.5647 121.569 13.1752L121.701 13.215" fill="white"/>
</svg>
